# xmcd
#
# Track frame offsets:
#	150
#	17080
#	28698
#	64773
#	77173
#	107510
#	140975
#	175908
#	192848
#	218530
#	246575
#
# Disc length: 3563 seconds
#
# Revision: 1
# Processed by: cddbd v1.5.2PL0 Copyright (c) Steve Scherf et al.
# Submitted via: audiograbber 1.83.01
#
DISCID=9a0de90b
DTITLE=Vangelis - Portraits Disc 2
DYEAR=1900
DGENRE=
TTITLE0=Anthem
TTITLE1=Bon Voyage
TTITLE2=Siren's Wispering
TTITLE3=Dreams of Surf
TTITLE4=Spanish Harbour
TTITLE5=Islands of the Orient
TTITLE6=Fields of Coral
TTITLE7=Aquatic Dance
TTITLE8=Memories of Blue
TTITLE9=Song of the Seas
TTITLE10=Anthem 1
EXTD=
EXTT0=
EXTT1=
EXTT2=
EXTT3=
EXTT4=
EXTT5=
EXTT6=
EXTT7=
EXTT8=
EXTT9=
EXTT10=
PLAYORDER=
